<?xml version="1.0" encoding="utf-8"?>
<!-- Generator: Adobe Illustrator 22.1.0, SVG Export Plug-In . SVG Version: 6.00 Build 0)  -->
<svg version="1.1" id="Capa_1" xmlns="http://www.w3.org/2000/svg" xmlns:xlink="http://www.w3.org/1999/xlink" x="0px" y="0px"
	 viewBox="0 0 512 776.6" style="enable-background:new 0 0 512 776.6;" xml:space="preserve">
<style type="text/css">
	.st0{fill:#FFFFFF;}
</style>
<g>
	<g>
		<path d="M510.7,180.6l-92.4-160c-2.8-4.8-8.9-6.4-13.7-3.7l-67.1,38.7c-2.3,1.3-4,3.5-4.7,6.1c-0.4,1.4-0.4,2.9-0.2,4.3h-13.4
			c-11.5,0-22.8,4.7-30.9,12.8L271,96.5l-12.2-14.7c-8.3-10-20.5-15.7-33.5-15.7h-45.9c0.3-1.4,0.2-2.9-0.2-4.3
			c-0.7-2.6-2.4-4.7-4.7-6.1L107.4,17c-4.8-2.8-10.9-1.1-13.7,3.7L71.4,59.2c-2.8,4.8-1.1,10.9,3.7,13.7c4.8,2.8,10.9,1.1,13.7-3.7
			L106,39.3L155.8,68L73.4,210.7L23.7,182l18.6-32.1c2.8-4.8,1.1-10.9-3.7-13.7c-4.8-2.8-10.9-1.1-13.7,3.7L1.3,180.6
			c-1.3,2.3-1.7,5-1,7.6s2.4,4.7,4.7,6.1L72.1,233c1.5,0.9,3.3,1.3,5,1.3c0.9,0,1.7-0.1,2.6-0.3c2.6-0.7,4.7-2.4,6.1-4.7l0.9-1.6
			l26.9,15.9c0,6.8,2.3,13.6,7.1,19c4.7,5.3,10.9,8.5,17.5,9.4c0.1,6.8,2.6,13.4,7.1,18.5s10.7,8.5,17.5,9.4
			c0.1,6.6,2.4,13.2,7.1,18.5c4.7,5.3,10.9,8.5,17.5,9.4c0.1,6.6,2.4,13.2,7.1,18.5c5.6,6.4,13.6,9.7,21.5,9.7
			c6.5,0,13.1-2.2,18.4-6.7c0.1-0.1,0.3-0.2,0.4-0.4l15.9-14.1c1.1,1.6,2.3,3.2,3.8,4.6l12.7,12.7c5.7,5.7,13.1,8.5,20.5,8.5
			s14.9-2.8,20.5-8.5c5.1-5.1,7.9-11.7,8.4-18.5c6.7-0.5,13.3-3.3,18.5-8.4s7.9-11.7,8.4-18.5c6.7-0.5,13.3-3.3,18.5-8.4
			s7.9-11.7,8.4-18.5c6.7-0.5,13.3-3.3,18.5-8.4c8.4-8.4,10.5-20.7,6.5-31.1l27-18.3l3.9,6.8c1.3,2.3,3.5,4,6.1,4.7
			c0.9,0.2,1.7,0.3,2.6,0.3c1.7,0,3.5-0.5,5-1.3l67.1-38.7C511.8,191.5,513.4,185.4,510.7,180.6z M294.1,338.4
			c-3.5,3.5-9.2,3.5-12.7,0l-12.7-12.7c-1.7-1.7-2.6-4-2.6-6.4c0-2.4,0.9-4.7,2.6-6.4s4-2.6,6.4-2.6c2.4,0,4.7,0.9,6.4,2.6
			l12.7,12.7C297.6,329.2,297.6,334.9,294.1,338.4z M321,311.5c-3.5,3.5-9.2,3.5-12.7,0l-12.7-12.7c-1.7-1.7-2.6-4-2.6-6.4
			c0-2.4,0.9-4.7,2.6-6.4s4-2.6,6.4-2.6c2.4,0,4.7,0.9,6.4,2.6l12.7,12.7C324.5,302.3,324.5,308,321,311.5z M347.8,284.6
			c-3.5,3.5-9.2,3.5-12.7,0l-12.7-12.7c-1.7-1.7-2.6-4-2.6-6.4c0-2.4,0.9-4.7,2.6-6.4s4-2.6,6.4-2.6c2.4,0,4.7,0.9,6.4,2.6
			l12.7,12.7C351.3,275.4,351.3,281.1,347.8,284.6z M374.7,257.8c-3.5,3.5-9.2,3.5-12.7,0L349.2,245c-3.5-3.5-3.5-9.2,0-12.7
			c1.8-1.8,4.1-2.6,6.4-2.6c2.3,0,4.6,0.9,6.4,2.6l12.7,12.7C378.2,248.5,378.2,254.3,374.7,257.8z M383,225.1l-6.9-6.9
			c-11.3-11.3-29.7-11.3-41,0c-5.1,5.1-7.9,11.7-8.4,18.5c-6.7,0.5-13.3,3.3-18.5,8.4s-7.9,11.7-8.4,18.5
			c-6.7,0.5-13.3,3.3-18.5,8.4s-7.9,11.7-8.4,18.5c-6.7,0.5-13.3,3.3-18.5,8.4c-3.7,3.7-6.2,8.2-7.5,12.9L221.9,334
			c-0.1,0.1-0.2,0.1-0.3,0.2c-3.6,3.1-9,2.8-12.2-0.8c-3.1-3.6-2.8-9,0.8-12.2c0.3-0.3,29-28.1,29-28.1c3.9-3.9,4-10.2,0.1-14.1
			c-3.9-3.9-10.2-4-14.1-0.1c0,0-25.9,25.7-26.1,25.9c-0.7,0.4-1.4,0.8-2,1.4c-3.6,3.1-9,2.8-12.2-0.8c-3.1-3.6-2.8-9,0.8-12.2
			c1-0.9,1.8-1.9,2.3-3l27.4-27.4c3.9-3.9,3.9-10.2,0-14.1c-3.9-3.9-10.2-3.9-14.1,0l-29.1,29.1c-0.5,0.5-0.9,1-1.2,1.5
			c-1.4,0.8-3,1.1-4.7,1c-2.3-0.1-4.4-1.2-5.9-2.9c-1.5-1.7-2.3-3.9-2.1-6.2c0.1-2.3,1.2-4.4,2.9-5.9c0.1-0.1,0.1-0.1,0.2-0.2
			c0.1-0.1,0.2-0.2,0.3-0.2l31.7-31.8c3.9-3.9,3.9-10.2,0-14.1c-3.9-3.9-10.2-3.9-14.1,0l-31.4,31.5c-3.6,3-8.9,2.6-12-0.9
			c-3.1-3.6-2.8-9,0.8-12.2c0.3-0.3,27.9-26.9,27.9-26.9c4-3.8,4.2-10.1,0.3-14.1c-3.8-4-10.1-4.2-14.1-0.3c0,0-29.2,28.1-29.8,28.8
			l-24.2-14.3l71.8-124.3h56.8c7,0,13.6,3.1,18.1,8.5l40.5,48.7c2.3,2.7,3.1,6.3,2.3,9.8c-0.8,3.5-3.1,6.3-6.3,7.8
			c-4.3,2-9.2,1.1-12.6-2.1l-43.4-41.1c-4-3.8-10.3-3.6-14.1,0.4c-3.8,4-3.6,10.3,0.4,14.1l2.8,2.7c-7.9,15.7-24.7,25.4-42.5,24.1
			l-0.2,0c-5.5-0.4-10.3,3.7-10.7,9.2c-0.4,5.5,3.7,10.3,9.2,10.7l0.2,0c1.6,0.1,3.2,0.2,4.7,0.2c22,0,42.6-11.6,54.2-30l25.6,24.3
			c6,5.7,13.7,8.6,21.5,8.6c4.4,0,8.9-1,13.2-2.9c8.9-4.1,15.3-12,17.5-21.6s-0.2-19.4-6.5-27L283.8,112l18.8-18.9
			c4.4-4.4,10.5-7,16.7-7h24.2l68.8,119.1L383,225.1z M438.5,210.7L356.2,68L406,39.3L488.3,182L438.5,210.7z"/>
	</g>
</g>
<g>
	<g>
		<path d="M61.5,96.5c-4.8-2.8-10.9-1.1-13.7,3.7l-0.7,1.1c-2.8,4.8-1.1,10.9,3.7,13.7c1.6,0.9,3.3,1.3,5,1.3c3.5,0,6.8-1.8,8.7-5
			l0.7-1.1C67.9,105.3,66.3,99.2,61.5,96.5z"/>
	</g>
</g>
<g>
	<g>
		<path d="M455.1,161.9c-1.9-1.9-4.4-2.9-7.1-2.9s-5.2,1.1-7.1,2.9c-1.9,1.9-2.9,4.4-2.9,7.1s1.1,5.2,2.9,7.1
			c1.9,1.9,4.4,2.9,7.1,2.9s5.2-1.1,7.1-2.9c1.9-1.9,2.9-4.4,2.9-7.1S456.9,163.8,455.1,161.9z"/>
	</g>
</g>
<g>
	<g>
		<path d="M71.1,161.9c-1.9-1.9-4.4-2.9-7.1-2.9c-2.6,0-5.2,1.1-7.1,2.9S54,166.4,54,169s1.1,5.2,2.9,7.1s4.4,2.9,7.1,2.9
			c2.6,0,5.2-1.1,7.1-2.9s2.9-4.4,2.9-7.1S72.9,163.8,71.1,161.9z"/>
	</g>
</g>
</svg>
