<?xml version="1.0" encoding="utf-8"?>
<!-- Generator: Adobe Illustrator 22.1.0, SVG Export Plug-In . SVG Version: 6.00 Build 0)  -->
<svg version="1.1" id="Layer_1" xmlns="http://www.w3.org/2000/svg" xmlns:xlink="http://www.w3.org/1999/xlink" x="0px" y="0px"
	 viewBox="0 0 512 512" style="enable-background:new 0 0 512 512;" xml:space="preserve">
<style type="text/css">
	.st0{fill:#4C95D0;}
</style>
<g>
	<g>
		<g>
			<path class="st0" d="M116.4,100.2H312c6.3,0,11.4-5.1,11.4-11.4s-5.1-11.4-11.4-11.4H116.4c-6.3,0-11.4,5.1-11.4,11.4
				S110.1,100.2,116.4,100.2z"/>
			<path class="st0" d="M68.5,100.2h2.9c6.3,0,11.4-5.1,11.4-11.4s-5.1-11.4-11.4-11.4h-2.9c-6.3,0-11.4,5.1-11.4,11.4
				S62.2,100.2,68.5,100.2z"/>
			<path class="st0" d="M68.5,145.8H312c6.3,0,11.4-5.1,11.4-11.4S318.3,123,312,123H68.5c-6.3,0-11.4,5.1-11.4,11.4
				S62.2,145.8,68.5,145.8z"/>
			<path class="st0" d="M68.5,191.4H312c6.3,0,11.4-5.1,11.4-11.4s-5.1-11.4-11.4-11.4H68.5c-6.3,0-11.4,5.1-11.4,11.4
				S62.2,191.4,68.5,191.4z"/>
			<path class="st0" d="M184.3,214.3h-4.6c-6.3,0-11.4,5.1-11.4,11.4c0,6.3,5.1,11.4,11.4,11.4h4.6c6.3,0,11.4-5.1,11.4-11.4
				C195.7,219.4,190.6,214.3,184.3,214.3z"/>
			<path class="st0" d="M68.5,237.1h71.6c6.3,0,11.4-5.1,11.4-11.4c0-6.3-5.1-11.4-11.4-11.4H68.5c-6.3,0-11.4,5.1-11.4,11.4
				C57.1,232,62.2,237.1,68.5,237.1z"/>
			<path class="st0" d="M505.7,41.4c-3.2-11.8-10.7-21.6-21.3-27.7c-21.8-12.6-49.8-5.1-62.3,16.7l-46.3,80.2V11.4
				c0-6.3-5.1-11.4-11.4-11.4H16.1C9.8,0,4.7,5.1,4.7,11.4v401.3c0,3,1.2,5.9,3.3,8.1l87.8,87.8c2.1,2.1,5,3.3,8.1,3.3h260.4
				c6.3,0,11.4-5.1,11.4-11.4V293.2L501.1,76.1C507.2,65.5,508.9,53.2,505.7,41.4z M92.6,473.1l-48.9-48.9h48.9V473.1z M353,489.2
				L353,489.2H115.4v-76.4c0-6.3-5.1-11.4-11.4-11.4H27.5V22.8H353v127.4l-37,64.1h-90.9c-6.3,0-11.4,5.1-11.4,11.4
				c0,6.3,5.1,11.4,11.4,11.4h77.7l-13.2,22.8H68.5c-6.3,0-11.4,5.1-11.4,11.4s5.1,11.4,11.4,11.4h207.9l-13.2,22.8H68.5
				c-6.3,0-11.4,5.1-11.4,11.4s5.1,11.4,11.4,11.4h181.6l-24.8,42.9c-0.9,1.6-1.4,3.3-1.5,4.9c0,0,0,0,0,0.1l-4.6,76.4
				c-0.3,4.3,1.9,8.4,5.7,10.6c1.5,0.8,3.1,1.3,4.7,1.5c0.3,0,83.8,0.1,83.8,0.1c6.3,0,11.4-5.1,11.4-11.4s-5.1-11.4-11.4-11.4
				h-44.8l32.2-21.2c0,0,0,0,0.1-0.1c1.4-1,2.7-2.2,3.5-3.8l48.6-84.2L353,489.2L353,489.2z M272.8,411.9l-29.4,19.4l2.1-35.2
				L272.8,411.9z M290.3,395.6l-19.8-11.4l-19.8-11.4l145.4-251.9l39.5,22.8L290.3,395.6z M447.2,123.9l-39.5-22.8l14.3-24.7
				l39.5,22.8L447.2,123.9z M481.4,64.7l-8.6,14.8l-39.5-22.8l8.6-14.8c6.3-10.9,20.3-14.6,31.2-8.3c5.3,3,9.1,8,10.6,13.9
				C485.2,53.2,484.4,59.4,481.4,64.7z"/>
		</g>
	</g>
</g>
</svg>
