<?xml version="1.0" encoding="utf-8"?>
<!-- Generator: Adobe Illustrator 22.1.0, SVG Export Plug-In . SVG Version: 6.00 Build 0)  -->
<svg version="1.1" id="Capa_1" xmlns="http://www.w3.org/2000/svg" xmlns:xlink="http://www.w3.org/1999/xlink" x="0px" y="0px"
	 viewBox="0 0 512 512" style="enable-background:new 0 0 512 512;" xml:space="preserve">
<style type="text/css">
	.st0{fill:#4C95D0;}
</style>
<g>
	<g>
		<path class="st0" d="M336,16c-85.3,0-176,28-176,80v64c0,8.8,7.2,16,16,16s16-7.2,16-16v-16.7c34,21.4,90,32.7,144,32.7
			s110-11.3,144-32.7V160c0,15.6-39.4,40.6-113.3,46.8c-8.8,0.7-15.3,8.5-14.6,17.3c0.7,8.4,7.7,14.7,15.9,14.7c0.5,0,0.9,0,1.4-0.1
			c41.7-3.5,83.2-14.3,110.7-31.8V224c0,13.7-29,33.3-82.8,42.8c-8.7,1.5-14.5,9.9-13,18.5c1.4,7.7,8.1,13.2,15.7,13.2
			c0.9,0,1.9-0.1,2.8-0.3c32.5-5.7,58.6-15.1,77.2-27V288c0,13.7-29,33.3-82.8,42.8c-8.7,1.5-14.5,9.9-13,18.5
			c1.4,7.7,8.1,13.2,15.7,13.2c0.9,0,1.9-0.1,2.8-0.3c32.5-5.7,58.6-15.1,77.2-27V352c0,13.7-29,33.3-82.8,42.8
			c-8.7,1.5-14.5,9.9-13,18.5c1.4,7.7,8.1,13.2,15.7,13.2c0.9,0,1.9-0.1,2.8-0.3c32.5-5.7,58.6-15.1,77.2-27V416
			c0,15.6-39.4,40.6-113.3,46.8c-8.8,0.7-15.3,8.5-14.6,17.3c0.7,8.4,7.7,14.7,15.9,14.7c0.5,0,0.9,0,1.4-0.1
			c71-6,142.7-32.5,142.7-78.7V96C512,44,421.3,16,336,16z M336,144c-87.9,0-144-28.4-144-48s56.1-48,144-48s144,28.4,144,48
			S423.9,144,336,144z"/>
	</g>
</g>
<g>
	<g>
		<path class="st0" d="M176,208C90.7,208,0,236,0,288v128c0,52,90.7,80,176,80s176-28,176-80V288C352,236,261.3,208,176,208z
			 M320,416c0,19.6-56.1,48-144,48S32,435.6,32,416v-16.7c34,21.4,90,32.7,144,32.7s110-11.3,144-32.7V416z M320,352
			c0,19.6-56.1,48-144,48S32,371.6,32,352v-16.7c34,21.4,90,32.7,144,32.7s110-11.3,144-32.7V352z M176,336c-87.9,0-144-28.4-144-48
			s56.1-48,144-48s144,28.4,144,48S263.9,336,176,336z"/>
	</g>
</g>
</svg>
