<?xml version="1.0" encoding="utf-8"?>
<!-- Generator: Adobe Illustrator 22.1.0, SVG Export Plug-In . SVG Version: 6.00 Build 0)  -->
<svg version="1.1" id="Capa_1" xmlns="http://www.w3.org/2000/svg" xmlns:xlink="http://www.w3.org/1999/xlink" x="0px" y="0px"
	 viewBox="0 0 459.5 459.5" style="enable-background:new 0 0 459.5 459.5;" xml:space="preserve">
<style type="text/css">
	.st0{fill:#4C95D0;}
</style>
<g>
	<path class="st0" d="M229.7,0C103.1,0,0,103.1,0,229.7c0,126.7,103.1,229.7,229.7,229.7c126.7,0,229.7-103.1,229.7-229.7
		C459.5,103.1,356.4,0,229.7,0z M229.7,431.5C118.5,431.5,28,341,28,229.7C28,118.5,118.5,28,229.7,28
		c111.2,0,201.7,90.5,201.7,201.7C431.5,341,341,431.5,229.7,431.5z M171,372.7l10.5,3.8L168,413.9l-10.5-3.8L171,372.7z
		 M125.3,343.2l8.6,7.2l-25.6,30.5l-8.6-7.2L125.3,343.2z M92.3,299.9l5.6,9.7l-34.4,19.9l-5.6-9.7L92.3,299.9z M78.1,259l-39.2,6.9
		l-1.9-11l39.2-6.9L78.1,259z M76.8,204.7l-39.2-6.9l1.9-11l39.2,6.9L76.8,204.7z M94.2,153.2l-34.5-19.9l5.6-9.7l34.5,19.9
		L94.2,153.2z M111.1,73l25.6,30.5l-8.6,7.2l-25.6-30.5L111.1,73z M171.4,41.2l13.6,37.4l-10.5,3.8L160.9,45L171.4,41.2z M239,71.7
		h-11.2V31.9H239V71.7z M295.2,42.4l10.5,3.8l-13.6,37.4l-10.5-3.8L295.2,42.4z M337.9,113.1l-8.6-7.2l25.6-30.5l8.6,7.2
		L337.9,113.1z M370.8,156.4l-5.6-9.7l34.5-19.9l5.6,9.7L370.8,156.4z M385,197.3l39.2-6.9l2,11l-39.2,6.9L385,197.3z M386.3,251.6
		l39.2,6.9l-1.9,11l-39.2-6.9L386.3,251.6z M369,303.1l34.5,19.9l-5.6,9.7l-34.5-19.9L369,303.1z M335,345.6l25.6,30.5l-8.6,7.2
		l-25.6-30.5L335,345.6z M288.6,373.9l13.6,37.4l-10.5,3.8l-13.6-37.4L288.6,373.9z M224.1,384.6h11.2v39.8h-11.2V384.6z
		 M255.1,229.7c0,9.4-5.2,17.5-12.8,21.9v33.1l-14.5,27.7l-14.5-27.7v-35.8c-5.4-4.6-9-11.5-9-19.2c0-8.5,4.2-16,10.6-20.6v-67.9
		l14.5-27.7l14.5,27.7v67.5C250.7,213.3,255.1,221,255.1,229.7z"/>
</g>
</svg>
