<?xml version="1.0" encoding="utf-8"?>
<!-- Generator: Adobe Illustrator 22.1.0, SVG Export Plug-In . SVG Version: 6.00 Build 0)  -->
<svg version="1.1" id="Capa_1" xmlns="http://www.w3.org/2000/svg" xmlns:xlink="http://www.w3.org/1999/xlink" x="0px" y="0px"
	 viewBox="0 0 525.1 998.2" style="enable-background:new 0 0 525.1 998.2;" xml:space="preserve">
<style type="text/css">
	.st0{fill:#FFFFFF;}
</style>
<g>
	<g>
		<path d="M380.3,366.9c3.4-27.9,5.1-55.9,5-84c6.8-3.8,12.7-9,17.2-15.3c12.9-18.2,13.9-44.1,3.2-77.1c-0.6-1.7-1.7-3.2-3.2-4.2
			l-5.4-3.6c0.9-29.9-9.4-59-28.8-81.8c-24-26.6-60.7-40-109.4-40s-85.5,13.8-109.4,40c-19.4,22.7-29.7,51.9-28.8,81.8l-5.4,3.6
			c-1.5,1-2.6,2.5-3.2,4.2c-18.6,57.2,2.2,81.8,19.8,92.2c-0.5,28.2,1,56.4,4.6,84.4c-43.5,17-90.6,47.4-89.3,98.2c0,4.4,3.6,8,8,8
			h406.6c4.4,0,8-3.6,8-8C471.2,414.3,423.6,383.9,380.3,366.9z M132.2,262.8c-15.9-16-12.9-42.8-6-65.1l6.8-4.6
			c2.5-1.6,3.8-4.5,3.5-7.4c-1.5-27.1,7.3-53.7,24.6-74.5c20.7-22.7,53.5-34.5,97.4-34.6c43.8-0.2,76.6,11.9,97.4,34.9
			c17.4,20.8,26.2,47.4,24.6,74.5c-0.3,2.9,1.1,5.8,3.5,7.4l6.9,4.6c8,26.6,7.6,46.9-1.8,60.2c-1.3,1.8-2.8,3.5-4.4,5
			c-2.8-60.7-17-106.2-42.8-135.6c-11.5-13.2-26-23.4-42.3-29.8h-0.7c-14.7-5.6-30.2-8.5-45.9-8.6c-29.3-1.2-57.6,10.9-76.9,33
			C145.6,156.8,135,213,132.2,262.8z M318.8,336.6l0.1-0.3c5.3-6.5,9.6-13.7,13-21.4c2-4.7,3.6-9.6,4.8-14.6l21.2-9
			c3.9-0.4,7.8-1.1,11.6-2.1c-0.3,24.1-1.8,48.1-4.6,72c-15-5-30.3-9-45.8-12.1v-11.4C319,337.4,318.9,337,318.8,336.6z
			 M284.2,313.7c0,4.9-4,9-9,9c-4.9,0-9-4-9-9s4-9,9-9l0,0c4.9,0.1,8.9,4.2,8.8,9.1c0,0.1,0,0.1,0,0.2L284.2,313.7z M275.2,289.1
			l0.1-0.3c-13.8-0.1-25,11-25.1,24.8s11,25,24.8,25.1c13.1,0.1,24-10,25.1-23l17.2-7.3c-14.1,33-48.5,45.7-58.5,48.7
			c-43.8-24-66.6-48-65.7-71.4c1.4-37.3,61.1-64,67.9-67.2c14.2-5.7,26.7-14.7,36.5-26.4c20.6,37.5,28.8,69.8,24.9,96.6l-26.4,11.1
			C291.2,293,283.4,289,275.2,289.1z M147.9,275.8l0.3-0.2c1.5-50.1,10.4-109.1,40-143c16.2-18.6,40-28.8,64.6-27.5
			c11.8,0.1,23.5,1.9,34.8,5.4c-0.3,7.5,0.6,15,2.9,22.2c3.4,13.3,7,27,0,40c0,0,0,0,0,0.6c-0.1,0.3-0.3,0.5-0.4,0.8
			c0,0.7-6.1,17.2-35.4,29.9c-12.6,5.4-75.8,35.1-77.5,81.2c-0.6,16.6,6.8,32.9,22.1,48.7c-0.6,1.1-1,2.4-1,3.7v11.3
			c-15.8,3.1-31.3,7.2-46.6,12.3c-3.1-26.7-4.3-53.6-3.8-80.5C148.3,279,148.3,277.3,147.9,275.8z M356,275.2c-1,0-2,0.3-2.9,0.6
			l-13.6,5.8c1.3-30.1-9.6-65.4-33-105.4c5.5-15.5,5.5-32.5,0-48c-1-3.8-2-8-2.6-11.1c9.9,5.3,18.8,12.3,26.2,20.8
			c24.6,28.1,37.8,73.1,39.3,134.4C365.1,273.9,360.6,274.9,356,275.2z M250.5,457.1h-187c6.3-60.1,104-85.2,134.6-91.7v14
			c0,18.2,22.1,32,52.5,34.3L250.5,457.1L250.5,457.1z M214,379.5L214,379.5v-32c12.5,9.6,25.9,18.1,40,25.4c1.2,0.6,2.4,1,3.8,1
			h1.8c15.8-4.2,30.6-11.6,43.5-21.8v27.6c0,7.6-17.4,18.6-44.5,18.6S214,386.9,214,379.5z M266.5,457.1v-43.3
			c30.4-2.1,52.5-16,52.5-34.3v-14c30.8,6.4,128,31.4,134.6,91.7L266.5,457.1z"/>
	</g>
</g>
</svg>
