<?xml version="1.0" encoding="utf-8"?>
<!-- Generator: Adobe Illustrator 22.1.0, SVG Export Plug-In . SVG Version: 6.00 Build 0)  -->
<svg version="1.1" id="Layer_1" xmlns="http://www.w3.org/2000/svg" xmlns:xlink="http://www.w3.org/1999/xlink" x="0px" y="0px"
	 viewBox="0 0 415 1119.5" style="enable-background:new 0 0 415 1119.5;" xml:space="preserve">
<style type="text/css">
	.st0{fill:#FFFFFF;}
</style>
<g>
	<g>
		<path d="M381.3,15H30.7c-5.6,0-10.2,4.6-10.2,10.2v491.6c0,5.6,4.6,10.2,10.2,10.2h266.6c2.7,0,5.3-1.1,7.2-3l84-84
			c1.9-1.9,3-4.5,3-7.2V25.2C391.5,19.6,386.9,15,381.3,15z M307.5,492.2l0-49.3l49.3,0L307.5,492.2z M371.1,422.6l-73.9-0.1
			c0,0,0,0,0,0c-2.7,0-5.3,1.1-7.2,3c-1.9,1.9-3,4.5-3,7.2l0.1,73.9H40.9V35.4h330.2V422.6z"/>
	</g>
</g>
<g>
	<g>
		<path d="M125,383c-25.6,0-46.5,20.9-46.5,46.5c0,25.6,20.9,46.5,46.5,46.5c25.6,0,46.5-20.9,46.5-46.5
			C171.5,403.8,150.7,383,125,383z M125,455.6c-14.4,0-26.1-11.7-26.1-26.1s11.7-26.1,26.1-26.1s26.1,11.7,26.1,26.1
			S139.4,455.6,125,455.6z"/>
	</g>
</g>
<g>
	<g>
		<path d="M258,420.9h-56.1c-5.6,0-10.2,4.6-10.2,10.2s4.6,10.2,10.2,10.2H258c5.6,0,10.2-4.6,10.2-10.2S263.6,420.9,258,420.9z"/>
	</g>
</g>
<g>
	<g>
		<path d="M121.3,76.2H91.8c-5.6,0-10.2,4.6-10.2,10.2c0,5.6,4.6,10.2,10.2,10.2h29.6c5.6,0,10.2-4.6,10.2-10.2S127,76.2,121.3,76.2
			z"/>
	</g>
</g>
<g>
	<g>
		<path d="M324.3,76.2h-88.7c-5.6,0-10.2,4.6-10.2,10.2c0,5.6,4.6,10.2,10.2,10.2h88.7c5.6,0,10.2-4.6,10.2-10.2
			S329.9,76.2,324.3,76.2z"/>
	</g>
</g>
<g>
	<g>
		<path d="M324.3,120.1H173.4c-5.6,0-10.2,4.6-10.2,10.2c0,5.6,4.6,10.2,10.2,10.2h150.9c5.6,0,10.2-4.6,10.2-10.2
			C334.5,124.6,329.9,120.1,324.3,120.1z"/>
	</g>
</g>
<g>
	<g>
		<path d="M324.8,200.6H87.2c-5.6,0-10.2,4.6-10.2,10.2S81.5,221,87.2,221h237.6c5.6,0,10.2-4.6,10.2-10.2S330.5,200.6,324.8,200.6z
			"/>
	</g>
</g>
<g>
	<g>
		<path d="M324.8,235.3H87.2c-5.6,0-10.2,4.6-10.2,10.2c0,5.6,4.6,10.2,10.2,10.2h237.6c5.6,0,10.2-4.6,10.2-10.2
			C335,239.9,330.5,235.3,324.8,235.3z"/>
	</g>
</g>
<g>
	<g>
		<path d="M324.8,273H87.2c-5.6,0-10.2,4.6-10.2,10.2s4.6,10.2,10.2,10.2h237.6c5.6,0,10.2-4.6,10.2-10.2
			C335,277.6,330.5,273,324.8,273z"/>
	</g>
</g>
<g>
	<g>
		<path d="M324.8,307.7h-5.6c-5.6,0-10.2,4.6-10.2,10.2s4.6,10.2,10.2,10.2h5.6c5.6,0,10.2-4.6,10.2-10.2
			C335,312.3,330.5,307.7,324.8,307.7z"/>
	</g>
</g>
<g>
	<g>
		<path d="M283.5,307.7H87.2c-5.6,0-10.2,4.6-10.2,10.2s4.6,10.2,10.2,10.2h196.3c5.6,0,10.2-4.6,10.2-10.2
			C293.7,312.3,289.1,307.7,283.5,307.7z"/>
	</g>
</g>
</svg>
