<?xml version="1.0" standalone="no"?>
<!DOCTYPE svg PUBLIC "-//W3C//DTD SVG 20010904//EN"
 "http://www.w3.org/TR/2001/REC-SVG-20010904/DTD/svg10.dtd">
<svg version="1.0" xmlns="http://www.w3.org/2000/svg"
 width="642.000000pt" height="642.000000pt" viewBox="0 0 642.000000 642.000000"
 preserveAspectRatio="xMidYMid meet">
<metadata>
Created by potrace 1.11, written by Peter Selinger 2001-2013
</metadata>
<g transform="translate(0.000000,642.000000) scale(0.100000,-0.100000)"
fill="#000000" stroke="none">
<path d="M1145 6408 c-268 -50 -502 -201 -654 -421 -53 -78 -109 -207 -135
-313 l-25 -99 0 -1315 c0 -1252 0 -1319 18 -1400 11 -47 29 -110 40 -140 108
-279 355 -508 636 -588 156 -44 122 -44 1834 -43 900 0 1659 3 1686 6 82 11
201 42 276 74 319 134 557 450 586 781 9 97 9 2536 0 2615 -44 409 -357 744
-777 835 -81 18 -171 18 -1760 18 -994 0 -1695 -4 -1725 -10z"/>
<path d="M5482 5802 c-16 -2 -20 -7 -14 -15 22 -28 84 -151 108 -213 59 -158
57 -93 58 -1494 1 -707 -2 -1314 -7 -1350 -34 -270 -187 -518 -419 -678 -119
-82 -268 -138 -423 -160 -27 -4 -799 -7 -1715 -7 l-1665 1 -90 22 c-49 12 -98
25 -109 28 -15 5 -13 -4 15 -57 33 -62 84 -120 144 -167 56 -43 222 -111 311
-126 16 -3 54 -10 84 -16 30 -6 87 -13 125 -16 154 -13 147 -11 152 -43 6 -41
55 -179 81 -229 56 -109 144 -191 245 -229 27 -10 77 -16 142 -17 94 -1 105 1
165 31 98 49 162 118 222 238 25 49 66 162 74 199 2 10 5 21 8 23 3 3 938 7
1036 4 24 -1 27 -7 44 -77 60 -259 225 -423 426 -424 65 0 154 21 212 51 99
50 194 188 254 366 15 46 32 83 38 84 6 0 20 2 31 4 11 2 40 7 64 10 211 31
389 125 558 293 221 220 330 438 369 737 2 22 8 78 13 125 9 94 5 2540 -4
2580 -3 14 -7 37 -10 52 -8 45 -53 162 -81 213 -46 80 -126 158 -206 199 -72
36 -190 65 -236 58z"/>
<path d="M2497 656 c-86 -25 -148 -108 -153 -206 -7 -145 113 -277 254 -281
53 -1 86 9 140 46 44 30 40 32 -14 6 -86 -42 -175 -3 -226 99 -31 62 -39 123
-26 183 28 129 174 160 262 56 19 -22 20 -22 26 -4 7 20 4 90 -5 104 -7 12
-215 9 -258 -3z"/>
<path d="M2935 533 c-46 -10 -77 -27 -89 -52 -20 -39 -9 -55 17 -25 18 21 32
26 70 26 54 1 73 -12 81 -54 3 -21 1 -28 -12 -29 -60 -3 -88 -10 -119 -31 -38
-25 -73 -84 -73 -121 0 -27 33 -66 58 -69 57 -5 81 -1 112 19 28 19 36 21 38
9 4 -20 37 -29 78 -21 30 5 49 25 24 25 -6 0 -9 41 -9 103 1 122 -13 174 -56
198 -32 19 -88 29 -120 22z m75 -222 c0 -67 -73 -102 -101 -50 -14 26 5 57 44
74 50 22 57 19 57 -24z"/>
<path d="M3344 515 c-58 -30 -54 -29 -54 -7 0 13 -9 18 -43 19 -63 3 -67 -2
-53 -77 15 -81 11 -200 -9 -252 -5 -11 8 -14 62 -14 62 1 68 3 65 21 -2 11 -8
25 -14 32 -5 6 -8 43 -7 81 3 94 25 132 78 132 42 0 61 14 61 47 0 39 -31 46
-86 18z"/>
<path d="M3555 533 c-63 -12 -91 -36 -100 -85 l-4 -21 22 21 c31 29 73 43 105
36 40 -10 52 -23 52 -58 0 -29 -2 -32 -32 -31 -49 2 -82 -12 -122 -52 -60 -61
-61 -129 0 -158 41 -19 81 -15 129 15 28 18 35 19 35 6 0 -20 34 -29 76 -21
30 5 49 25 24 25 -5 0 -9 47 -9 109 0 125 -14 172 -58 194 -31 16 -87 25 -118
20z m75 -218 c0 -47 -36 -85 -73 -78 -15 3 -28 9 -28 14 -1 5 -2 15 -3 22 -4
23 15 49 47 62 49 22 57 19 57 -20z"/>
<path d="M4310 533 c-44 -7 -80 -25 -92 -47 -16 -28 -18 -45 -7 -52 5 -3 9 -1
9 5 0 15 40 39 74 45 34 6 82 -16 88 -41 9 -34 -5 -48 -51 -50 -97 -5 -179
-111 -141 -183 12 -23 69 -42 104 -36 15 3 42 14 61 26 28 17 35 19 35 7 0
-29 63 -37 96 -12 11 9 14 14 6 15 -10 0 -12 22 -11 88 2 87 -6 152 -23 184
-17 33 -92 59 -148 51z m72 -218 c-8 -66 -57 -100 -93 -64 -10 10 -19 23 -19
28 0 17 41 60 63 64 43 9 52 3 49 -28z"/>
<path d="M4724 525 c-16 -6 -36 -20 -44 -30 -14 -17 -15 -16 -20 6 -5 19 -13
24 -45 26 -58 4 -67 -5 -54 -52 11 -40 8 -248 -5 -275 -5 -14 3 -16 56 -15 51
0 62 3 60 15 -2 8 -7 26 -10 40 -17 75 11 200 48 220 25 13 26 13 48 -10 16
-17 19 -37 19 -133 0 -61 -3 -117 -7 -122 -9 -11 68 -18 108 -9 20 4 23 9 17
32 -4 15 -9 50 -11 77 -10 124 -15 169 -24 184 -25 48 -85 68 -136 46z"/>
<path d="M5270 528 c-14 -5 -35 -19 -47 -30 l-23 -21 0 24 c0 23 -3 25 -49 24
-27 0 -52 -2 -55 -5 -3 -3 -1 -23 5 -45 12 -53 12 -202 -1 -244 -5 -19 -7 -37
-4 -40 6 -7 106 -11 116 -5 3 2 0 23 -6 46 -31 106 19 255 78 232 8 -3 18 -13
22 -22 11 -24 14 -235 3 -248 -6 -7 11 -10 59 -10 61 1 67 3 65 21 -2 11 -5
49 -8 85 -12 158 -17 181 -44 211 -28 32 -71 42 -111 27z"/>
<path d="M5588 523 c-54 -15 -107 -70 -110 -111 -5 -82 11 -135 59 -189 81
-93 211 -73 268 41 30 60 31 106 5 164 -23 51 -35 64 -80 87 -44 23 -85 25
-142 8z m102 -65 c23 -24 30 -46 32 -93 3 -63 -3 -84 -30 -113 -51 -55 -110
-20 -117 70 -6 74 35 158 76 158 10 0 28 -10 39 -22z"/>
<path d="M522 522 c-9 -7 -6 -24 16 -78 16 -38 39 -100 52 -139 34 -105 44
-120 78 -123 25 -2 31 3 45 35 9 21 21 56 28 78 6 22 18 55 27 74 l15 33 29
-93 c17 -52 31 -101 32 -109 2 -10 16 -16 39 -16 34 -2 36 0 56 55 12 31 23
65 25 76 7 33 39 117 63 163 12 23 18 42 15 43 -4 0 -16 2 -27 5 -46 9 -61 -3
-61 -50 0 -40 -38 -146 -53 -146 -12 0 -50 146 -45 170 5 23 2 25 -33 27 -69
3 -80 -3 -81 -44 0 -21 -11 -67 -25 -103 l-25 -65 -28 60 c-15 33 -28 79 -28
102 -1 24 -3 43 -6 44 -56 7 -98 7 -108 1z"/>
<path d="M1091 521 c-11 -7 -11 -14 2 -42 21 -46 84 -217 92 -252 8 -32 38
-51 69 -43 17 4 28 24 50 93 31 95 55 141 57 110 2 -24 2 -24 28 -107 13 -41
25 -80 27 -86 1 -7 18 -12 37 -12 39 0 39 1 87 153 20 63 48 133 70 175 7 12
1 15 -28 14 -21 0 -42 -2 -48 -2 -6 -1 -11 -21 -11 -45 0 -39 -38 -147 -52
-147 -6 0 -39 99 -46 139 -2 13 0 31 4 40 8 14 3 16 -32 18 -74 3 -85 -2 -85
-45 -1 -32 -29 -123 -49 -155 -10 -16 -64 134 -61 166 3 29 2 30 -47 33 -27 2
-56 0 -64 -5z"/>
<path d="M1677 523 c-12 -3 -16 -10 -12 -21 3 -10 19 -51 35 -92 16 -41 41
-109 56 -151 26 -72 29 -76 59 -77 37 -1 41 5 80 126 15 45 30 82 34 82 7 0
61 -165 61 -188 0 -13 1 -14 47 -18 31 -2 33 0 54 64 13 37 24 72 25 78 1 6
18 52 38 101 20 50 36 92 36 95 0 2 -20 4 -44 4 l-44 1 1 -46 c1 -43 -36 -151
-52 -151 -12 0 -46 125 -44 161 l3 35 -58 0 c-56 -1 -57 -1 -58 -31 -2 -39
-13 -79 -36 -135 l-20 -45 -30 75 c-17 43 -28 87 -26 105 3 29 2 30 -42 31
-25 1 -53 -1 -63 -3z"/>
<path d="M3808 523 c-22 -5 -22 -5 1 -45 11 -18 31 -64 46 -103 75 -198 74
-195 112 -192 35 2 35 2 72 108 21 58 52 134 69 169 18 35 32 64 32 64 0 2
-84 0 -97 -2 -7 -1 -9 -15 -6 -40 4 -28 -2 -54 -23 -100 -15 -34 -31 -59 -35
-55 -17 20 -60 149 -57 172 4 25 2 26 -47 27 -27 1 -58 -1 -67 -3z"/>
<path d="M2192 273 c-11 -10 -23 -28 -26 -39 -13 -44 54 -73 88 -38 23 22 20
71 -3 84 -27 14 -36 13 -59 -7z"/>
<path d="M4963 275 c-27 -19 -34 -49 -16 -74 28 -40 96 -17 96 32 0 52 -38 72
-80 42z"/>
</g>
</svg>
